# xmcd
#
# Track frame offsets:
#	150
#	50521
#	82870
#	120377
#	165617
#	197464
#	239601
#
# Disc length: 3585 seconds
#
# Revision: 1
# Processed by: cddbd v1.5.1PL0 Copyright (c) Steve Scherf et al.
# Submitted via: CDex 1.50Beta5
#
DISCID=4e0dff07
DTITLE=なし - 名曲アルバム
DYEAR=1900
DGENRE=Classical
TTITLE0=ウイリアムテル
TTITLE1=セビリアの理髪師
TTITLE2=こうもり
TTITLE3=詩人と農夫
TTITLE4=軽騎兵
TTITLE5=天国と地獄
TTITLE6=売られた花嫁
EXTD=
EXTT0=
EXTT1=
EXTT2=
EXTT3=
EXTT4=
EXTT5=
EXTT6=
PLAYORDER=
